# xmcd CD database file
#
# Track frame offsets:
#	150
#	16592
#	30337
#	45560
#	59592
#	76675
#	90040
#	103135
#	119660
#	134005
#	151332
#	161165
#	182382
#
# Disc length: 2620 seconds
#
# Revision: 4
# Processed by: cddbd v1.5.2PL0 Copyright (c) Steve Scherf et al.
# Submitted via: CDex 1.70beta2
#
DISCID=950a3a0d
DTITLE=Great Speckled Bird - Great Speckled Bird
DYEAR=1969
DGENRE=Country
TTITLE0=Love What You're Doing Child
TTITLE1=Calgary
TTITLE2=Truckers Cafe
TTITLE3=Long Long Time To Get Old
TTITLE4=Flies In The Bottle
TTITLE5=Bloodshot Beholder
TTITLE6=Crazy Arms
TTITLE7=This Dream
TTITLE8=Smiling Wine
TTITLE9=Rio Grande
TTITLE10=Disappearing Woman
TTITLE11=We Sail
TTITLE12=New Truckers Cafe (Live Version)
EXTD=YEAR: 1969
EXTT0=
EXTT1=
EXTT2=
EXTT3=
EXTT4=
EXTT5=
EXTT6=
EXTT7=
EXTT8=
EXTT9=
EXTT10=
EXTT11=
EXTT12=Bonus Track - Live Version
PLAYORDER=
